<svg width="98" height="20" viewBox="0 0 98 20" fill="none" xmlns="http://www.w3.org/2000/svg">
<path d="M0.202216 19V1.54545H6.74767C8.08858 1.54545 9.21358 1.77841 10.1227 2.24432C11.0374 2.71023 11.7278 3.36364 12.1937 4.20454C12.6653 5.03977 12.9011 6.0142 12.9011 7.12784C12.9011 8.24716 12.6624 9.21875 12.1852 10.0426C11.7136 10.8608 11.0176 11.4943 10.0971 11.9432C9.17665 12.3864 8.04597 12.608 6.70506 12.608H2.04313V9.98295H6.27892C7.06301 9.98295 7.70506 9.875 8.20506 9.65909C8.70506 9.4375 9.07438 9.11648 9.31301 8.69602C9.55733 8.26989 9.67949 7.74716 9.67949 7.12784C9.67949 6.50852 9.55733 5.98011 9.31301 5.54261C9.06869 5.09943 8.69653 4.7642 8.19653 4.53693C7.69653 4.30398 7.05165 4.1875 6.26188 4.1875H3.36415V19H0.202216ZM9.21926 11.0909L13.5403 19H10.0119L5.76756 11.0909H9.21926ZM20.3232 19.2557C19.0107 19.2557 17.8772 18.983 16.9226 18.4375C15.9738 17.8864 15.2436 17.108 14.7323 16.1023C14.2209 15.0909 13.9652 13.9006 13.9652 12.5312C13.9652 11.1847 14.2209 10.0028 14.7323 8.9858C15.2493 7.96307 15.9709 7.16761 16.897 6.59943C17.8232 6.02557 18.9113 5.73864 20.1613 5.73864C20.9681 5.73864 21.7294 5.86932 22.4453 6.13068C23.1669 6.38636 23.8033 6.78409 24.3544 7.32386C24.9113 7.86364 25.3488 8.55114 25.6669 9.38636C25.9851 10.2159 26.1442 11.2045 26.1442 12.3523V13.2983H15.4141V11.2188H23.1868C23.1811 10.6278 23.0533 10.1023 22.8033 9.64205C22.5533 9.17614 22.2039 8.80966 21.755 8.54261C21.3118 8.27557 20.7948 8.14205 20.2039 8.14205C19.5732 8.14205 19.0192 8.29545 18.5419 8.60227C18.0647 8.90341 17.6925 9.30114 17.4255 9.79545C17.1641 10.2841 17.0306 10.821 17.0249 11.4062V13.2216C17.0249 13.983 17.1641 14.6364 17.4425 15.1818C17.7209 15.7216 18.1101 16.1364 18.6101 16.4261C19.1101 16.7102 19.6953 16.8523 20.3658 16.8523C20.8147 16.8523 21.2209 16.7898 21.5845 16.6648C21.9482 16.5341 22.2635 16.3438 22.5306 16.0938C22.7976 15.8438 22.9993 15.5341 23.1357 15.1648L26.0164 15.4886C25.8345 16.25 25.488 16.9148 24.9766 17.483C24.4709 18.0455 23.8232 18.483 23.0334 18.7955C22.2436 19.1023 21.3402 19.2557 20.3232 19.2557ZM39.1125 5.90909L34.4505 19H31.0414L26.3795 5.90909H29.6693L32.6778 15.6335H32.8142L35.8312 5.90909H39.1125ZM45.5523 19.2557C44.2739 19.2557 43.166 18.9744 42.2285 18.4119C41.291 17.8494 40.5637 17.0625 40.0466 16.0511C39.5353 15.0398 39.2796 13.858 39.2796 12.5057C39.2796 11.1534 39.5353 9.96875 40.0466 8.9517C40.5637 7.93466 41.291 7.14489 42.2285 6.58239C43.166 6.01989 44.2739 5.73864 45.5523 5.73864C46.8307 5.73864 47.9387 6.01989 48.8762 6.58239C49.8137 7.14489 50.5381 7.93466 51.0495 8.9517C51.5665 9.96875 51.8251 11.1534 51.8251 12.5057C51.8251 13.858 51.5665 15.0398 51.0495 16.0511C50.5381 17.0625 49.8137 17.8494 48.8762 18.4119C47.9387 18.9744 46.8307 19.2557 45.5523 19.2557ZM45.5694 16.7841C46.2626 16.7841 46.8421 16.5937 47.308 16.2131C47.7739 15.8267 48.1205 15.3097 48.3478 14.6619C48.5807 14.0142 48.6972 13.2926 48.6972 12.4972C48.6972 11.696 48.5807 10.9716 48.3478 10.3239C48.1205 9.67045 47.7739 9.15057 47.308 8.7642C46.8421 8.37784 46.2626 8.18466 45.5694 8.18466C44.8591 8.18466 44.2682 8.37784 43.7966 8.7642C43.3307 9.15057 42.9813 9.67045 42.7484 10.3239C42.5211 10.9716 42.4074 11.696 42.4074 12.4972C42.4074 13.2926 42.5211 14.0142 42.7484 14.6619C42.9813 15.3097 43.3307 15.8267 43.7966 16.2131C44.2682 16.5937 44.8591 16.7841 45.5694 16.7841ZM56.5689 1.54545V19H53.4837V1.54545H56.5689ZM67.1252 13.4943V5.90909H70.2105V19H67.219V16.6733H67.0826C66.7872 17.4062 66.3014 18.0057 65.6252 18.4716C64.9548 18.9375 64.1281 19.1705 63.1451 19.1705C62.2872 19.1705 61.5286 18.9801 60.8695 18.5994C60.2161 18.2131 59.7048 17.6534 59.3355 16.9205C58.9661 16.1818 58.7815 15.2898 58.7815 14.2443V5.90909H61.8667V13.767C61.8667 14.5966 62.094 15.2557 62.5485 15.7443C63.0031 16.233 63.5997 16.4773 64.3383 16.4773C64.7928 16.4773 65.2332 16.3665 65.6593 16.1449C66.0855 15.9233 66.4349 15.5938 66.7076 15.1562C66.986 14.7131 67.1252 14.1591 67.1252 13.4943ZM78.96 5.90909V8.29545H71.4344V5.90909H78.96ZM73.2924 2.77273H76.3776V15.0625C76.3776 15.4773 76.4401 15.7955 76.5651 16.017C76.6958 16.233 76.8662 16.3807 77.0765 16.4602C77.2867 16.5398 77.5196 16.5795 77.7753 16.5795C77.9685 16.5795 78.1446 16.5653 78.3037 16.5369C78.4685 16.5085 78.5935 16.483 78.6787 16.4602L79.1986 18.8722C79.0338 18.929 78.798 18.9915 78.4912 19.0597C78.1901 19.1278 77.8208 19.1676 77.3833 19.179C76.6105 19.2017 75.9145 19.0852 75.2952 18.8295C74.6759 18.5682 74.1844 18.1648 73.8208 17.6193C73.4628 17.0739 73.2867 16.392 73.2924 15.5739V2.77273ZM80.5802 19V5.90909H83.6654V19H80.5802ZM82.1314 4.05114C81.6427 4.05114 81.2223 3.8892 80.87 3.56534C80.5177 3.23579 80.3416 2.84091 80.3416 2.38068C80.3416 1.91477 80.5177 1.51989 80.87 1.19602C81.2223 0.866477 81.6427 0.701704 82.1314 0.701704C82.6257 0.701704 83.0461 0.866477 83.3927 1.19602C83.745 1.51989 83.9211 1.91477 83.9211 2.38068C83.9211 2.84091 83.745 3.23579 83.3927 3.56534C83.0461 3.8892 82.6257 4.05114 82.1314 4.05114ZM91.6735 19.2557C90.361 19.2557 89.2275 18.983 88.2729 18.4375C87.3241 17.8864 86.594 17.108 86.0826 16.1023C85.5712 15.0909 85.3155 13.9006 85.3155 12.5312C85.3155 11.1847 85.5712 10.0028 86.0826 8.9858C86.5996 7.96307 87.3212 7.16761 88.2474 6.59943C89.1735 6.02557 90.2616 5.73864 91.5116 5.73864C92.3184 5.73864 93.0797 5.86932 93.7957 6.13068C94.5172 6.38636 95.1536 6.78409 95.7047 7.32386C96.2616 7.86364 96.6991 8.55114 97.0172 9.38636C97.3354 10.2159 97.4945 11.2045 97.4945 12.3523V13.2983H86.7644V11.2188H94.5371C94.5315 10.6278 94.4036 10.1023 94.1536 9.64205C93.9036 9.17614 93.5542 8.80966 93.1053 8.54261C92.6621 8.27557 92.1451 8.14205 91.5542 8.14205C90.9235 8.14205 90.3695 8.29545 89.8922 8.60227C89.415 8.90341 89.0428 9.30114 88.7758 9.79545C88.5144 10.2841 88.3809 10.821 88.3752 11.4062V13.2216C88.3752 13.983 88.5144 14.6364 88.7928 15.1818C89.0712 15.7216 89.4604 16.1364 89.9604 16.4261C90.4604 16.7102 91.0457 16.8523 91.7161 16.8523C92.165 16.8523 92.5712 16.7898 92.9349 16.6648C93.2985 16.5341 93.6138 16.3438 93.8809 16.0938C94.1479 15.8438 94.3496 15.5341 94.486 15.1648L97.3667 15.4886C97.1849 16.25 96.8383 16.9148 96.3269 17.483C95.8212 18.0455 95.1735 18.483 94.3837 18.7955C93.594 19.1023 92.6905 19.2557 91.6735 19.2557Z" fill="#232323"/>
</svg>
